Coordinates
version=1
nRows=24
nColumns=24
inDegrees=yes

Units are S.I. units (second, meters, Newtons, ...)
Angles are in degrees.

endheader
time	pelvis_tilt	pelvis_list	pelvis_rotation	pelvis_tx	pelvis_ty	pelvis_tz	hip_flexion_r	hip_adduction_r	hip_rotation_r	knee_angle_r	ankle_angle_r	subtalar_angle_r	mtp_angle_r	hip_flexion_l	hip_adduction_l	hip_rotation_l	knee_angle_l	ankle_angle_l	subtalar_angle_l	mtp_angle_l	lumbar_extension	lumbar_bending	lumbar_rotation
      7.23000000	      7.98482020	     -0.04852136	      4.78111672	      1.41983255	      0.92622794	     -0.14173178	      9.96328261	      3.90652304	     -4.69757637	     -1.36458823	      5.23578917	      1.17522057	      0.00000000	    -20.29579674	      1.97817535	      0.96744821	    -18.36742061	     10.47131678	      2.60143001	      0.00000000	    -23.66642241	      0.87964925	     -6.32173869
      7.24000000	      8.25226327	     -0.33044388	      4.86717363	      1.43164279	      0.92615363	     -0.14102080	      9.35445980	      4.37060093	     -3.47494800	     -1.91595978	      3.56593521	     -0.03597967	      0.00000000	    -20.41795678	      1.37887329	      0.08376310	    -19.85133473	      9.52885851	      3.40949142	      0.00000000	    -23.64794060	      1.24816813	     -6.31282067
      7.25000000	      8.54839422	     -0.68236002	      4.92199621	      1.44351693	      0.92639256	     -0.14031048	      8.72487442	      4.91164996	     -2.31933060	     -2.45798468	      1.79157731	     -1.37010802	      0.00000000	    -20.47377019	      0.69537919	     -0.89291454	    -21.44680349	      8.28883410	      4.11084407	      0.00000000	    -23.65000259	      1.69887401	     -6.24534922
      7.26000000	      8.90959445	     -1.11369035	      4.93053348	      1.45540205	      0.92698552	     -0.13959788	      8.08366939	      5.53776918	     -1.44719410	     -3.10575795	      0.27988759	     -2.52246859	      0.00000000	    -20.49364881	     -0.08492630	     -1.99019208	    -23.15930039	      6.74286485	      4.69973578	      0.00000000	    -23.73065171	      2.24668986	     -6.09935063
      7.27000000	      9.17594327	     -1.55469538	      4.81522964	      1.46718425	      0.92770145	     -0.13882165	      7.62680663	      6.16644082	     -0.63456686	     -3.94329412	     -0.95335523	     -3.61041181	      0.00000000	    -20.31070511	     -0.82324315	     -3.10856706	    -24.98013766	      4.80889050	      4.89835177	      0.00000000	    -23.71465422	      2.77723806	     -5.88156687
      7.28000000	      9.40664090	     -1.98513965	      4.64520842	      1.47879547	      0.92858141	     -0.13801782	      7.27634848	      6.76979532	     -0.21731417	     -4.94695463	     -1.54183539	     -4.29384775	      0.00000000	    -19.96552669	     -1.53304537	     -4.14924410	    -26.93889460	      2.46840362	      4.74409141	      0.00000000	    -23.68805201	      3.27047846	     -5.59433482
      7.29000000	      9.62042443	     -2.42904766	      4.41618941	      1.49017925	      0.92958958	     -0.13715767	      6.99674732	      7.37071703	     -0.16683138	     -6.08614279	     -1.60135547	     -4.47241002	      0.00000000	    -19.46962902	     -2.26758967	     -5.20668657	    -29.05338093	     -0.06892478	      4.51571291	      0.00000000	    -23.68852285	      3.76725382	     -5.30441620
      7.30000000	      9.74312869	     -2.79878684	      4.09385780	      1.50125442	      0.93056655	     -0.13620346	      6.81860909	      7.88399317	     -0.07752258	     -7.28413527	     -1.12762077	     -4.57765164	      0.00000000	    -18.77771676	     -2.85436193	     -6.02659141	    -31.25068709	     -2.93082354	      3.62230398	      0.00000000	    -23.64499487	      4.13165673	     -4.95869949
      7.31000000	      9.84139604	     -3.13715022	      3.80701360	      1.51202258	      0.93160013	     -0.13530407	      6.63364232	      8.32988186	     -0.34186891	     -8.42698898	     -0.26933357	     -4.09398321	      0.00000000	    -17.92496401	     -3.41145582	     -6.59998189	    -33.57207874	     -5.91052560	      2.51782011	      0.00000000	    -23.62596126	      4.47046298	     -4.67712757
      7.32000000	      9.88867949	     -3.40950962	      3.53912967	      1.52248054	      0.93260093	     -0.13439931	      6.42329249	      8.69641366	     -0.55830835	     -9.43000879	      0.78289381	     -3.54485555	      0.00000000	    -16.89606142	     -3.88654324	     -6.92687711	    -35.98822752	     -8.85148418	      1.23176422	      0.00000000	    -23.60221737	      4.71135533	     -4.42334436
      7.33000000	      9.90221493	     -3.59666339	      3.34531388	      1.53263907	      0.93358291	     -0.13356570	      6.13904095	      8.97516066	     -0.62224074	    -10.22540917	      1.85046844	     -3.17005370	      0.00000000	    -15.71384436	     -4.26118176	     -6.95620417	    -38.46403643	    -11.59537300	     -0.13509837	      0.00000000	    -23.59087930	      4.85062297	     -4.27892733
      7.34000000	      9.93057722	     -3.73354584	      3.25507408	      1.54253670	      0.93461216	     -0.13286388	      5.75102525	      9.18854976	     -0.82339210	    -10.82710717	      2.92014663	     -2.64339253	      0.00000000	    -14.44444832	     -4.57751819	     -6.73185125	    -40.95758203	    -13.95268222	     -1.40546597	      0.00000000	    -23.64215893	      4.94200696	     -4.18300762
      7.35000000	      9.93959794	     -3.84888681	      3.25511827	      1.55223805	      0.93562742	     -0.13227648	      5.25858598	      9.39421483	     -0.86401115	    -11.16858624	      3.77785683	     -2.39203485	      0.00000000	    -13.07021244	     -4.85028498	     -6.30657401	    -43.43346071	    -15.69638898	     -2.49501815	      0.00000000	    -23.69429914	      5.02005133	     -4.08844364
      7.36000000	      9.98584858	     -3.88164649	      3.35885423	      1.56172748	      0.93671959	     -0.13184134	      4.66715708	      9.50653414	     -1.04369455	    -11.37431526	      4.67845627	     -2.03266956	      0.00000000	    -11.68059849	     -5.02202318	     -5.73477526	    -45.81270764	    -16.74772919	     -3.35252111	      0.00000000	    -23.83500571	      5.01254278	     -4.14771009
      7.37000000	     10.02678492	     -3.91629490	      3.55744320	      1.57108801	      0.93780831	     -0.13155933	      3.97555998	      9.63664844	     -1.11224837	    -11.35023647	      5.31791556	     -1.96362059	      0.00000000	    -10.24642658	     -5.15979770	     -5.03435474	    -48.07771615	    -16.85809539	     -4.02417541	      0.00000000	    -23.97479039	      5.03481981	     -4.23544240
      7.38000000	     10.04998162	     -3.91364729	      3.75976804	      1.58031650	      0.93889463	     -0.13132299	      3.26158549	      9.72832212	     -1.19605853	    -11.23420843	      5.93718856	     -1.89038926	      0.00000000	     -8.80133514	     -5.21829434	     -4.36250318	    -50.14226628	    -16.21747915	     -4.62921608	      0.00000000	    -24.11195020	      5.00487420	     -4.30335669
      7.39000000	     10.04721051	     -3.89648625	      3.94576524	      1.58943569	      0.93996338	     -0.13111954	      2.53885376	      9.80204878	     -1.27877985	    -11.03438802	      6.49290177	     -1.81785821	      0.00000000	     -7.35691013	     -5.21854801	     -3.74828190	    -51.96997899	    -14.87324369	     -5.27842777	      0.00000000	    -24.22706387	      4.95392663	     -4.33568295
      7.40000000	      9.98749507	     -3.85957019	      4.07567799	      1.59846331	      0.94096930	     -0.13088676	      1.86214776	      9.84487459	     -1.36181045	    -10.79760919	      7.00230994	     -1.69058649	      0.00000000	     -5.89902649	     -5.16079507	     -3.24373696	    -53.52795744	    -13.00605820	     -6.01887134	      0.00000000	    -24.27382265	      4.85139439	     -4.29343616
      7.41000000	      9.87661224	     -3.79203451	      4.11612207	      1.60739450	      0.94192589	     -0.13060618	      1.24037506	      9.83952821	     -1.43675119	    -10.55709268	      7.47526202	     -1.48346863	      0.00000000	     -4.45079576	     -5.03783956	     -2.88363405	    -54.78503483	    -10.84926603	     -6.87471079	      0.00000000	    -24.26817842	      4.69056598	     -4.17140762
      7.42000000	      9.73028860	     -3.70199262	      4.08772268	      1.61623623	      0.94283131	     -0.13029031	      0.66303476	      9.79855871	     -1.46240207	    -10.32584218	      7.92834010	     -1.25738761	      0.00000000	     -3.02438832	     -4.87050184	     -2.63418253	    -55.74361763	     -8.64820874	     -7.83418349	      0.00000000	    -24.22667945	      4.48495658	     -3.99006790
      7.43000000	      9.55472438	     -3.58617107	      3.99203360	      1.62501880	      0.94368237	     -0.12993434	      0.12337814	      9.71988554	     -1.43035589	    -10.10635175	      8.38462410	     -1.02534958	      0.00000000	     -1.63143393	     -4.66589898	     -2.48821217	    -56.40404133	     -6.53743056	     -8.80808490	      0.00000000	    -24.14373006	      4.22833061	     -3.74703722
      7.44000000	      9.38616384	     -3.43911981	      3.83359270	      1.63376759	      0.94451435	     -0.12954673	     -0.42451339	      9.60108087	     -1.32603538	     -9.88965511	      8.84762634	     -0.85177211	      0.00000000	     -0.32048136	     -4.43589906	     -2.45611853	    -56.76028042	     -4.61985236	     -9.74989879	      0.00000000	    -24.06232317	      3.92252674	     -3.47919588
      7.45000000	      9.19546788	     -3.26869373	      3.64245792	      1.64242520	      0.94527013	     -0.12915849	     -0.92277156	      9.44725934	     -1.20141298	     -9.71605211	      9.26219290	     -0.64759632	      0.00000000	      0.96402548	     -4.17561733	     -2.45867303	    -56.85845259	     -2.88016069	    -10.51784236	      0.00000000	    -23.96790457	      3.57986949	     -3.18389083
      7.46000000	      9.00496805	     -3.09589702	      3.45011143	      1.65102344	      0.94595557	     -0.12880554	     -1.40529869	      9.28243845	     -1.11601953	     -9.56421593	      9.65194166	     -0.38199102	      0.00000000	      2.20310200	     -3.92522398	     -2.49215578	    -56.71330994	     -1.30010315	    -11.07585472	      0.00000000	    -23.87312073	      3.24192301	     -2.89606342
